<?xml version="1.0" encoding="UTF-8"?>
<svg xmlns="http://www.w3.org/2000/svg" xmlns:xlink="http://www.w3.org/1999/xlink" width="1920pt" height="1080pt" viewBox="0 0 1920 1080" version="1.1">
<g id="surface1">
<path style=" stroke:none;fill-rule:nonzero;fill:rgb(0%,0%,0%);fill-opacity:1;" d="M 1730.289063 466.804688 L 1755.539063 466.804688 L 1755.539063 421.296875 L 1788.839844 421.296875 L 1788.839844 466.523438 L 1818.804688 466.523438 L 1818.804688 491.222656 L 1788.839844 491.222656 L 1788.839844 571.6875 C 1788.839844 575.296875 1789.113281 578.070313 1789.394531 580.84375 C 1789.671875 583.34375 1790.503906 585.5625 1791.335938 587.226563 C 1792.445313 588.890625 1794.109375 590.28125 1796.050781 591.113281 C 1798.269531 591.945313 1801.046875 592.5 1804.933594 592.5 C 1807.152344 592.5 1809.648438 592.5 1811.867188 592.222656 C 1814.089844 591.945313 1816.585938 591.667969 1818.804688 591.113281 L 1818.804688 616.917969 C 1815.199219 617.472656 1811.589844 617.75 1807.984375 618.027344 C 1804.375 618.582031 1801.046875 618.582031 1797.160156 618.582031 C 1788.28125 618.582031 1781.347656 617.75 1776.074219 616.085938 C 1770.800781 614.421875 1766.640625 611.925781 1763.585938 608.871094 C 1760.535156 605.542969 1758.59375 601.65625 1757.480469 596.9375 C 1756.371094 592.222656 1755.816406 586.394531 1755.539063 580.292969 L 1755.539063 491.5 L 1730.289063 491.5 L 1730.289063 466.25 Z M 1644.273438 595.273438 C 1651.484375 595.273438 1658.144531 593.609375 1663.417969 590.558594 C 1668.96875 587.507813 1673.128906 583.34375 1676.738281 578.347656 C 1680.34375 573.355469 1682.84375 567.527344 1684.507813 561.421875 C 1686.171875 555.042969 1687.003906 548.660156 1687.003906 542 C 1687.003906 535.617188 1686.171875 529.234375 1684.507813 522.851563 C 1682.84375 516.472656 1680.34375 510.921875 1676.738281 505.925781 C 1673.128906 500.933594 1668.691406 497.046875 1663.417969 493.996094 C 1657.867188 490.941406 1651.484375 489.277344 1644.273438 489.277344 C 1637.058594 489.277344 1630.398438 490.941406 1625.125 493.996094 C 1619.578125 497.046875 1615.414063 501.210938 1611.808594 505.925781 C 1608.199219 510.921875 1605.703125 516.472656 1604.039063 522.851563 C 1602.371094 529.234375 1601.539063 535.617188 1601.539063 542 C 1601.539063 548.660156 1602.371094 555.042969 1604.039063 561.421875 C 1605.703125 567.804688 1608.199219 573.355469 1611.808594 578.347656 C 1615.414063 583.34375 1619.855469 587.507813 1625.125 590.558594 C 1630.675781 593.886719 1637.058594 595.273438 1644.273438 595.273438 M 1644.273438 621.636719 C 1632.339844 621.636719 1621.519531 619.691406 1612.085938 615.53125 C 1602.648438 611.367188 1594.882813 606.097656 1588.222656 599.160156 C 1581.839844 592.222656 1576.847656 583.621094 1573.515625 573.910156 C 1570.1875 564.195313 1568.242188 553.375 1568.242188 542 C 1568.242188 530.621094 1569.90625 520.078125 1573.515625 510.367188 C 1576.847656 500.65625 1581.839844 492.332031 1588.222656 485.117188 C 1594.601563 478.179688 1602.648438 472.628906 1612.085938 468.746094 C 1621.519531 464.859375 1632.339844 462.640625 1644.273438 462.640625 C 1656.203125 462.640625 1667.023438 464.582031 1676.460938 468.746094 C 1685.894531 472.628906 1693.664063 478.179688 1700.320313 485.117188 C 1706.703125 492.054688 1711.699219 500.65625 1715.027344 510.367188 C 1718.359375 520.078125 1720.300781 530.621094 1720.300781 542 C 1720.300781 553.652344 1718.636719 564.195313 1715.027344 573.910156 C 1711.421875 583.621094 1706.703125 591.945313 1700.320313 599.160156 C 1693.941406 606.097656 1685.894531 611.644531 1676.460938 615.53125 C 1667.023438 619.414063 1656.480469 621.636719 1644.273438 621.636719 M 1509.417969 409.363281 L 1542.714844 409.363281 L 1542.714844 617.472656 L 1509.417969 617.472656 Z M 1446.429688 466.804688 L 1479.730469 466.804688 L 1479.730469 617.472656 L 1446.429688 617.472656 Z M 1446.429688 409.363281 L 1479.730469 409.363281 L 1479.730469 440.71875 L 1446.429688 440.71875 Z M 1387.882813 542.277344 C 1387.882813 535.617188 1387.050781 528.957031 1385.109375 522.574219 C 1383.445313 516.195313 1380.667969 510.644531 1377.0625 505.648438 C 1373.453125 500.65625 1369.015625 496.769531 1364.019531 493.71875 C 1358.746094 490.667969 1352.644531 489.277344 1345.984375 489.277344 C 1332.109375 489.277344 1321.566406 493.996094 1314.351563 503.707031 C 1307.414063 513.417969 1303.808594 526.460938 1303.808594 542.554688 C 1303.808594 550.324219 1304.640625 557.261719 1306.582031 563.640625 C 1308.523438 570.023438 1311.023438 575.574219 1314.90625 580.292969 C 1318.515625 585.007813 1322.953125 588.613281 1328.226563 591.390625 C 1333.496094 594.164063 1339.324219 595.554688 1346.261719 595.554688 C 1354.03125 595.554688 1360.136719 593.886719 1365.40625 590.835938 C 1370.679688 587.78125 1374.84375 583.621094 1378.449219 578.902344 C 1381.777344 573.910156 1384.277344 568.359375 1385.664063 561.976563 C 1387.050781 555.316406 1387.882813 548.9375 1387.882813 542.277344 M 1271.621094 466.804688 L 1302.976563 466.804688 L 1302.976563 487.335938 L 1303.53125 487.335938 C 1308.246094 478.457031 1314.628906 472.351563 1322.953125 468.46875 C 1331.277344 464.582031 1340.15625 462.640625 1350.144531 462.640625 C 1362.078125 462.640625 1372.34375 464.582031 1381.222656 469.023438 C 1390.101563 473.183594 1397.316406 478.734375 1403.144531 486.226563 C 1408.972656 493.441406 1413.410156 502.042969 1416.1875 511.753906 C 1418.960938 521.464844 1420.625 532.011719 1420.625 542.832031 C 1420.625 553.097656 1419.238281 562.808594 1416.742188 572.246094 C 1413.96875 581.679688 1410.082031 590.28125 1404.808594 597.496094 C 1399.539063 604.710938 1392.878906 610.535156 1384.554688 614.976563 C 1376.230469 619.414063 1366.796875 621.636719 1355.695313 621.636719 C 1350.980469 621.636719 1345.984375 621.082031 1341.269531 620.25 C 1336.550781 619.414063 1331.832031 618.027344 1327.394531 616.085938 C 1322.953125 614.144531 1318.792969 611.644531 1315.183594 608.59375 C 1311.300781 605.542969 1308.246094 601.933594 1305.75 598.050781 L 1305.195313 598.050781 L 1305.195313 673.246094 L 1271.898438 673.246094 L 1271.898438 466.804688 Z M 1159.796875 466.804688 L 1185.046875 466.804688 L 1185.046875 421.296875 L 1218.347656 421.296875 L 1218.347656 466.523438 L 1248.3125 466.523438 L 1248.3125 491.222656 L 1218.347656 491.222656 L 1218.347656 571.6875 C 1218.347656 575.296875 1218.621094 578.070313 1218.898438 580.84375 C 1219.179688 583.34375 1220.011719 585.5625 1220.84375 587.226563 C 1221.953125 588.890625 1223.617188 590.28125 1225.558594 591.113281 C 1227.777344 591.945313 1230.554688 592.5 1234.4375 592.5 C 1236.660156 592.5 1239.15625 592.5 1241.375 592.222656 C 1243.597656 591.945313 1246.09375 591.667969 1248.3125 591.113281 L 1248.3125 616.917969 C 1244.707031 617.472656 1241.097656 617.75 1237.492188 618.027344 C 1233.882813 618.582031 1230.554688 618.582031 1226.671875 618.582031 C 1217.789063 618.582031 1210.851563 617.75 1205.582031 616.085938 C 1200.308594 614.421875 1196.148438 611.921875 1193.09375 608.871094 C 1190.042969 605.542969 1188.101563 601.65625 1186.988281 596.9375 C 1185.882813 592.222656 1185.324219 586.394531 1185.046875 580.292969 L 1185.046875 491.5 L 1159.796875 491.5 L 1159.796875 466.25 Z M 1050.195313 569.191406 C 1051.304688 578.902344 1054.910156 585.5625 1061.292969 589.726563 C 1067.675781 593.609375 1075.445313 595.554688 1084.324219 595.554688 C 1087.375 595.554688 1090.984375 595.273438 1094.867188 594.71875 C 1098.753906 594.164063 1102.636719 593.332031 1105.96875 591.945313 C 1109.574219 590.558594 1112.347656 588.613281 1114.566406 585.839844 C 1116.789063 583.066406 1117.898438 579.734375 1117.621094 575.574219 C 1117.34375 571.414063 1115.957031 567.804688 1112.902344 565.03125 C 1109.851563 562.253906 1106.242188 560.3125 1101.804688 558.371094 C 1097.363281 556.707031 1092.09375 555.316406 1086.265625 554.207031 C 1080.4375 553.097656 1074.613281 551.710938 1068.507813 550.324219 C 1062.402344 548.9375 1056.300781 547.269531 1050.472656 545.328125 C 1044.644531 543.386719 1039.648438 540.890625 1034.933594 537.28125 C 1030.492188 533.953125 1026.609375 529.789063 1024.109375 524.519531 C 1021.335938 519.246094 1019.949219 513.140625 1019.949219 505.371094 C 1019.949219 497.046875 1021.890625 490.386719 1026.054688 484.839844 C 1029.9375 479.289063 1035.210938 474.851563 1041.3125 471.519531 C 1047.421875 468.191406 1054.355469 465.691406 1061.847656 464.304688 C 1069.339844 462.917969 1076.554688 462.363281 1083.214844 462.363281 C 1090.984375 462.363281 1098.476563 463.195313 1105.410156 464.859375 C 1112.347656 466.523438 1119.007813 469.023438 1124.558594 472.90625 C 1130.386719 476.515625 1135.101563 481.507813 1138.710938 487.335938 C 1142.59375 493.164063 1144.8125 500.378906 1145.925781 508.703125 L 1111.238281 508.703125 C 1109.574219 500.65625 1105.96875 495.382813 1100.417969 492.609375 C 1094.589844 489.835938 1088.210938 488.445313 1080.71875 488.445313 C 1078.496094 488.445313 1075.445313 488.722656 1072.394531 489 C 1069.0625 489.554688 1066.289063 490.109375 1063.234375 491.222656 C 1060.460938 492.332031 1057.964844 493.996094 1056.019531 495.9375 C 1054.078125 497.882813 1052.96875 500.65625 1052.96875 503.984375 C 1052.96875 508.148438 1054.355469 511.199219 1057.132813 513.695313 C 1059.90625 516.195313 1063.511719 518.136719 1068.230469 520.078125 C 1072.671875 521.742188 1077.941406 523.132813 1083.769531 524.242188 C 1089.597656 525.351563 1095.699219 526.738281 1101.804688 528.125 C 1107.910156 529.511719 1113.734375 531.179688 1119.5625 533.121094 C 1125.390625 535.0625 1130.660156 537.558594 1135.101563 541.167969 C 1139.542969 544.496094 1143.425781 548.660156 1146.199219 553.652344 C 1148.976563 558.648438 1150.363281 565.03125 1150.363281 572.246094 C 1150.363281 581.125 1148.421875 588.613281 1144.257813 594.996094 C 1140.097656 601.101563 1134.824219 606.375 1128.441406 610.257813 C 1122.0625 614.144531 1114.566406 616.917969 1106.800781 618.859375 C 1098.753906 620.523438 1090.984375 621.636719 1083.214844 621.636719 C 1073.777344 621.636719 1064.898438 620.523438 1056.851563 618.304688 C 1048.808594 616.085938 1041.59375 612.757813 1035.765625 608.59375 C 1029.9375 604.152344 1025.222656 598.882813 1021.890625 592.222656 C 1018.5625 585.839844 1016.617188 578.070313 1016.34375 568.914063 L 1049.917969 568.914063 L 1049.917969 569.191406 Z M 993.589844 617.472656 L 960.847656 617.472656 L 960.847656 596.386719 L 960.292969 596.386719 C 956.128906 604.152344 950.023438 609.980469 941.976563 614.699219 C 933.933594 619.414063 925.605469 621.636719 917.28125 621.636719 C 897.582031 621.636719 883.152344 616.917969 874.273438 606.929688 C 865.394531 597.21875 860.953125 582.234375 860.953125 562.53125 L 860.953125 466.804688 L 894.253906 466.804688 L 894.253906 559.203125 C 894.253906 572.519531 896.75 581.957031 902.019531 587.226563 C 907.015625 592.777344 914.230469 595.554688 923.386719 595.554688 C 930.324219 595.554688 936.152344 594.441406 940.867188 592.222656 C 945.585938 590.003906 949.46875 587.226563 952.246094 583.621094 C 955.296875 580.011719 957.238281 575.574219 958.628906 570.578125 C 960.015625 565.585938 960.570313 560.035156 960.570313 554.207031 L 960.570313 466.804688 L 993.867188 466.804688 L 993.867188 617.472656 Z M 752.738281 466.804688 L 783.816406 466.804688 L 783.816406 495.9375 L 784.371094 495.9375 C 785.480469 491.777344 787.425781 487.890625 790.199219 484.007813 C 792.972656 480.121094 796.304688 476.515625 800.464844 473.460938 C 804.351563 470.132813 808.789063 467.636719 813.785156 465.691406 C 818.5 463.75 823.496094 462.640625 828.488281 462.640625 C 832.375 462.640625 835.148438 462.917969 836.535156 462.917969 C 837.925781 463.195313 839.589844 463.472656 840.976563 463.472656 L 840.976563 495.382813 C 838.757813 494.828125 836.261719 494.550781 833.761719 494.273438 C 831.265625 493.996094 829.046875 493.71875 826.546875 493.71875 C 820.996094 493.71875 815.726563 494.828125 810.730469 497.046875 C 805.738281 499.269531 801.574219 502.597656 797.691406 506.761719 C 794.082031 511.199219 791.03125 516.472656 788.8125 522.851563 C 786.589844 529.234375 785.480469 536.726563 785.480469 545.050781 L 785.480469 616.640625 L 752.183594 616.640625 Z M 591.523438 409.363281 L 759.953125 409.363281 L 759.953125 440.71875 L 693.636719 440.71875 L 693.636719 617.472656 L 657.285156 617.472656 L 657.285156 440.71875 L 591.246094 440.71875 Z M 591.523438 409.363281 "/>
<path style=" stroke:none;fill-rule:nonzero;fill:rgb(0%,71.398926%,47.799683%);fill-opacity:1;" d="M 552.679688 409.363281 L 400.34375 409.363281 L 353.449219 264.523438 L 306.277344 409.363281 L 153.945313 409.089844 L 277.144531 498.714844 L 229.972656 643.554688 L 353.171875 553.929688 L 476.371094 643.554688 L 429.476563 498.714844 Z M 552.679688 409.363281 "/>
<path style=" stroke:none;fill-rule:nonzero;fill:rgb(0%,31.799316%,15.699768%);fill-opacity:1;" d="M 440.023438 531.457031 L 429.480469 498.714844 L 353.449219 553.929688 Z M 440.023438 531.457031 "/>
</g>
</svg>
